<svg width="98" height="98" viewBox="0 0 98 98" fill="none" xmlns="http://www.w3.org/2000/svg">
<path d="M97.5591 48.5226C97.5591 75.3255 75.8293 97.0529 49.0288 97.0529C22.2298 97.0529 0.5 75.3255 0.5 48.5226C0.5 21.728 22.2289 0 49.0288 0C75.8293 0 97.5591 21.728 97.5591 48.5226Z" fill="#E7E8EC"/>
<mask id="mask0_4_736" style="mask-type:alpha" maskUnits="userSpaceOnUse" x="30" y="28" width="39" height="42">
<path fill-rule="evenodd" clip-rule="evenodd" d="M64.0833 32.3333H55.375C54.5 29.9166 52.2083 28.1666 49.5 28.1666C46.7917 28.1666 44.5 29.9166 43.625 32.3333H34.9167C32.625 32.3333 30.75 34.2083 30.75 36.5V65.6666C30.75 67.9583 32.625 69.8333 34.9167 69.8333H64.0833C66.375 69.8333 68.25 67.9583 68.25 65.6666V36.5C68.25 34.2083 66.375 32.3333 64.0833 32.3333ZM49.5 32.3333C50.6458 32.3333 51.5833 33.2708 51.5833 34.4166C51.5833 35.5625 50.6458 36.5 49.5 36.5C48.3542 36.5 47.4167 35.5625 47.4167 34.4166C47.4167 33.2708 48.3542 32.3333 49.5 32.3333ZM41.1667 61.5H51.5833C52.7292 61.5 53.6667 60.5625 53.6667 59.4166C53.6667 58.2708 52.7292 57.3333 51.5833 57.3333H41.1667C40.0208 57.3333 39.0833 58.2708 39.0833 59.4166C39.0833 60.5625 40.0208 61.5 41.1667 61.5ZM57.8333 53.1666H41.1667C40.0208 53.1666 39.0833 52.2291 39.0833 51.0833C39.0833 49.9375 40.0208 49 41.1667 49H57.8333C58.9792 49 59.9167 49.9375 59.9167 51.0833C59.9167 52.2291 58.9792 53.1666 57.8333 53.1666ZM41.1667 44.8333H57.8333C58.9792 44.8333 59.9167 43.8958 59.9167 42.75C59.9167 41.6041 58.9792 40.6666 57.8333 40.6666H41.1667C40.0208 40.6666 39.0833 41.6041 39.0833 42.75C39.0833 43.8958 40.0208 44.8333 41.1667 44.8333Z" fill="black"/>
</mask>
<g mask="url(#mask0_4_736)">
<rect x="24.5" y="24" width="50" height="50" fill="#98A2B3"/>
</g>
</svg>
