<svg width="10" height="13" viewBox="0 0 10 13" fill="none" xmlns="http://www.w3.org/2000/svg">
<path d="M8.94485 10.1516L8.9449 10.1517L8.95116 10.1457L9.49984 9.61893V11.3C9.49984 11.4789 9.426 11.6548 9.28747 11.7878C9.14824 11.9215 8.95522 12 8.74988 12H1.21312C1.01473 11.9956 0.830096 11.9162 0.6981 11.7851C0.56594 11.6538 0.497209 11.482 0.500087 11.3083L0.500156 11.3083V11.3V5.2H3.12506C3.58275 5.2 4.02559 5.02564 4.35519 4.70922C4.68548 4.39212 4.87502 3.9576 4.87502 3.5V1H8.78686C8.98526 1.00443 9.1699 1.0838 9.3019 1.21492C9.43406 1.34619 9.50279 1.51802 9.49991 1.69172L9.49984 1.69171V1.7V5.78107L8.95382 5.25686C8.84983 5.15443 8.72693 5.07368 8.59265 5.0183C8.45686 4.96231 8.31152 4.93309 8.16495 4.93187C8.01838 4.93064 7.87258 4.95743 7.73589 5.01112C7.59918 5.06482 7.47365 5.14463 7.36715 5.24687C7.2606 5.34916 7.17518 5.47194 7.11693 5.6086L7.57691 5.80463L7.11693 5.60861C7.05867 5.74532 7.02906 5.89258 7.03041 6.04157C7.03176 6.19055 7.06402 6.33723 7.12471 6.47286C7.14438 6.51682 7.16688 6.55928 7.192 6.6H4.37502C4.08309 6.6 3.79921 6.71114 3.58682 6.91505C3.37373 7.11962 3.25004 7.40153 3.25004 7.7C3.25004 7.99847 3.37373 8.28038 3.58682 8.48495C3.79921 8.68886 4.08309 8.8 4.37502 8.8H7.19844C7.09823 8.96834 7.04395 9.1623 7.04577 9.36317C7.04844 9.65821 7.17185 9.93614 7.38251 10.1384C7.5925 10.34 7.87246 10.451 8.1611 10.4534C8.44973 10.4558 8.73146 10.3495 8.94485 10.1516ZM0.984208 3L2.62506 1.42473V3H0.984208Z" fill="#1F2A37" stroke="#1F2A37"/>
</svg>
