<svg width="12" height="13" viewBox="0 0 12 13" fill="none" xmlns="http://www.w3.org/2000/svg">
<path d="M3.01228 9H1.76712L2.66648 9.86114C3.54744 10.7047 4.73953 11.2 6 11.2C8.62568 11.2 10.7778 9.1008 10.7778 6.5C10.7778 6.45323 10.8187 6.4 10.8889 6.4C10.9591 6.4 11 6.45323 11 6.5C11 9.19248 8.76545 11.4 6 11.4C4.75385 11.4 3.57168 10.9317 2.66365 10.1326L1.83333 9.40195V10.508V11.9C1.83333 11.9468 1.79238 12 1.72222 12C1.65206 12 1.61111 11.9468 1.61111 11.9V8.9C1.61111 8.88894 1.61362 8.87949 1.62045 8.86838C1.62826 8.85567 1.64336 8.83881 1.66831 8.8237L1.6684 8.82385L1.67945 8.81676C1.68512 8.81312 1.69057 8.80948 1.69578 8.80587L1.69766 8.80515L1.70785 8.80073C1.74034 8.78665 1.76286 8.78706 1.77722 8.78998L1.82652 8.8H1.87683H4.77778C4.84794 8.8 4.88889 8.85323 4.88889 8.9C4.88889 8.94677 4.84794 9 4.77778 9H3.01228ZM8.98772 4H10.2329L9.33352 3.13886C8.45256 2.29534 7.26047 1.8 6 1.8C3.37432 1.8 1.22222 3.8992 1.22222 6.5C1.22222 6.54677 1.18127 6.6 1.11111 6.6C1.04095 6.6 1 6.54677 1 6.5C1 3.80752 3.23455 1.6 6 1.6C7.24615 1.6 8.42832 2.06827 9.33635 2.86735L10.1667 3.59805V2.492V1.1C10.1667 1.05323 10.2076 1 10.2778 1C10.3479 1 10.3889 1.05323 10.3889 1.1V4.1C10.3889 4.11111 10.3864 4.1206 10.3796 4.13166C10.3718 4.1443 10.3569 4.16081 10.3327 4.17545L10.3326 4.17529L10.3212 4.18263C10.3155 4.18628 10.31 4.18992 10.3048 4.19353L10.302 4.19462L10.2908 4.1995C10.2585 4.21371 10.2361 4.21304 10.2234 4.2104L10.1732 4.2H10.1219H7.22222C7.15206 4.2 7.11111 4.14677 7.11111 4.1C7.11111 4.05323 7.15206 4 7.22222 4H8.98772Z" fill="#1F2A37" stroke="#1F2A37"/>
</svg>
