<svg width="6" height="12" viewBox="0 0 6 12" fill="none" xmlns="http://www.w3.org/2000/svg">
<path d="M1.01026 11.4C0.812902 11.3999 0.619993 11.3366 0.455913 11.2181C0.291833 11.0996 0.16395 10.9311 0.0884323 10.7341C0.0129142 10.537 -0.00684831 10.3201 0.0316418 10.1109C0.0701319 9.90171 0.165147 9.70953 0.304676 9.55868L3.59106 6.0066L0.304676 2.45453C0.209357 2.35502 0.133328 2.236 0.0810238 2.10439C0.0287201 1.97279 0.00118918 1.83125 3.76799e-05 1.68802C-0.00111382 1.5448 0.0241378 1.40276 0.0743177 1.27019C0.124498 1.13763 0.198602 1.01719 0.292306 0.915912C0.38601 0.814632 0.497437 0.734537 0.620087 0.6803C0.742736 0.626064 0.874151 0.598772 1.00666 0.600016C1.13918 0.601261 1.27013 0.631018 1.39189 0.68755C1.51365 0.744082 1.62377 0.826258 1.71584 0.929282L5.7078 5.24398C5.8949 5.44626 6 5.72058 6 6.0066C6 6.29263 5.8949 6.56694 5.7078 6.76923L1.71584 11.0839C1.52872 11.2862 1.27492 11.3999 1.01026 11.4Z" fill="#6B7280"/>
</svg>
